PathFileType	4	(X/Y/Z)	Patient4_TMGait_0pt6_02_left_35.trc.trc
DataRate	CameraRate	NumFrames	NumMarkers	Units	OrigDataRate	OrigDataStartFrame	OrigNumFrames
83.832335329341	83.832335329341	5	33	mm	83.832335329341	71	       141
Frame#	Time	Sacral			L.Shoulder			Chest			R.Shoulder			Neck			R.ASIS			L.ASIS			R.Thigh.Superior			R.Thigh.Lateral			R.Thigh.Inferior			R.Patella			L.Thigh.Superior			L.Thigh.Lateral			L.Thigh.Inferior			L.Patella			L.Shank.Superior			L.Shank.Lateral			L.Shank.Inferior			R.Shank.Superior			R.Shank.Lateral			R.Shank.Inferior			R.Heel			R.Midfoot.Superior			R.Midfoot.Lateral			R.Toe			L.Heel			L.Midfoot.Lateral			L.Midfoot.Superior			L.Toe			L.Elbow			L.Wrist			R.Elbow			R.Wrist			
		X1	Y1	Z1	X2	Y2	Z2	X3	Y3	Z3	X4	Y4	Z4	X5	Y5	Z5	X6	Y6	Z6	X7	Y7	Z7	X8	Y8	Z8	X9	Y9	Z9	X10	Y10	Z10	X11	Y11	Z11	X12	Y12	Z12	X13	Y13	Z13	X14	Y14	Z14	X15	Y15	Z15	X16	Y16	Z16	X17	Y17	Z17	X18	Y18	Z18	X19	Y19	Z19	X20	Y20	Z20	X21	Y21	Z21	X22	Y22	Z22	X23	Y23	Z23	X24	Y24	Z24	X25	Y25	Z25	X26	Y26	Z26	X27	Y27	Z27	X28	Y28	Z28	X29	Y29	Z29	X30	Y30	Z30	X31	Y31	Z31	X32	Y32	Z32	X33	Y33	Z33	

71	43.555000000000	828.657218494434	1007.677751041685	438.129327168755	1038.079168420317	1425.336469037351	254.379823347559	1130.300543342581	1348.344699544050	417.540196927288	1048.352093070599	1433.752550248062	585.651548548943	1036.984902232927	1486.576705892713	402.413357362479	1052.692961717422	938.168796670248	558.861864833372	1040.166076627996	953.680199760155	283.272050146721	1125.301105856170	766.686578323994	530.908683474446	1081.301482379420	645.043522975615	605.837201787358	1168.330317688412	608.289915093783	523.828224017151	1200.637043409376	524.442973702029	538.433263329591	1047.822745231578	730.039614150556	314.242645458580	934.410351885501	633.789891861977	251.955631354156	995.530516310322	541.386043192041	316.972053135912	981.363851519053	474.142687403825	326.843772015485	948.487129575047	407.674716967489	318.418598079603	845.859499813764	304.109530457113	268.453690142677	882.491914716033	188.305961970715	340.354658596529	1183.583632230335	434.964089925753	552.013165155643	1131.224406724732	323.335231705015	619.619975539596	1196.628190308847	235.188933233714	566.215717105862	1101.359350978567	49.470494377748	545.225004853333	1266.941655106776	121.811574400893	577.159094902943	1188.684699964252	48.149598043011	615.161543510302	1391.689412127622	83.047906861715	597.229808619716	742.945951359091	39.207464279267	386.929162574338	813.071502944035	35.286859848528	303.431815550500	898.010148008861	95.452176152620	327.029981269639	1024.872334749607	41.031341354307	292.023299140266	1089.660455618012	1098.422014363730	103.855637906532	1342.935735450242	1063.411014325012	128.849111735767	876.756838510697	1142.807814440851	709.767416871641	823.220961628779	885.962337745728	718.777598709040	
72	43.566928571429	830.966447802302	1005.820140858731	441.045438472633	1037.388530706665	1423.987162410892	256.140915244246	1130.901121021003	1347.619615442980	418.827417007271	1049.439313174373	1432.834127008634	587.266133996771	1037.054187671824	1485.322450666489	403.977886676347	1055.727217059805	936.200366816174	560.342370168454	1041.880236742444	952.872439962140	285.083954193072	1126.406834091333	762.249861105012	532.745559628798	1079.137832601458	641.074721402780	606.355068676047	1166.007007345298	603.670549475516	524.709173217737	1195.999539780633	519.973156636598	538.508155894090	1047.870021231358	728.392174449989	315.198967636597	933.081156019598	633.139203661014	253.284348434457	993.611200844627	540.045192970718	317.706219730041	978.998821752757	472.551753321659	327.459234411033	945.133755458854	406.482147696904	319.140390663891	841.013669133805	304.315550011279	269.195431948818	876.486095634498	187.856117628661	340.623748473116	1179.648845186856	430.367293034440	551.873191785593	1126.904522015963	318.174585965245	618.024564323469	1193.041043736344	230.699605897993	564.600957596195	1097.996382650321	46.138125184046	541.915510411411	1263.466899159234	117.398791718267	574.823301027791	1184.698706703256	44.745197281583	612.616598638447	1388.025847592984	78.178363485400	595.958602808252	735.729875647462	39.360044965693	386.930951613632	805.902248014415	35.342857184946	303.494746749454	890.939170631509	95.437695018700	327.071144519938	1017.713030546038	40.798853516239	291.966099007559	1091.174585025725	1097.459805712532	106.093465414765	1344.842437701889	1069.874003262284	133.024326656278	876.474445132386	1143.339481487530	711.448045063650	821.787102215696	886.495686170730	719.575411273616	
73	43.578857142857	833.249957983390	1004.042495868875	444.089383524147	1036.688037183870	1422.667806950905	258.018975064714	1131.549195196812	1346.961488184294	420.220546124194	1050.578852073332	1431.936463489172	589.024619330120	1037.185549965478	1484.142617337299	405.699312887072	1058.790837775593	934.345357899927	561.908895492330	1043.671097005896	952.174931683291	287.061707616559	1127.848793154246	758.147995152867	534.575947058039	1077.365894260193	637.502804240174	606.692372187596	1164.149598874323	599.557575876751	525.445306100375	1191.802454091519	515.759481360873	538.376368679565	1048.344765241685	726.858602443405	316.200549173886	932.251558884889	632.462370230012	254.822430817167	992.440862302391	538.705236191898	318.530938265933	977.475514539199	470.825759121751	328.160002008867	942.410937994780	405.220998829907	319.963740267357	836.615734132629	304.674594347631	270.052264213709	870.723795773401	187.472986332687	340.914583186243	1175.834195339755	425.996523159674	551.495002658788	1122.352807274141	313.551184205851	616.425202769871	1188.539111178638	226.389657900968	562.888048207851	1092.522708523170	43.745061277500	539.005151197879	1258.334459753452	112.911251157609	572.341328316755	1178.718322636296	41.903722778912	610.308922140036	1382.545085886320	72.503292887279	594.403270951177	728.537540222079	39.787251518997	386.901624180624	798.772447110373	35.520734827242	303.550003206969	883.980997695614	95.473462781171	327.077655457184	1010.592862404114	40.527786221730	291.892939617323	1092.189929934015	1096.290453534548	108.488444021056	1346.025860073030	1075.256709000432	137.242229846867	877.400066345740	1142.998259848068	713.261657471903	821.907266462867	886.085513938501	720.387655030994	
74	43.590785714286	835.442190679729	1002.466046197343	447.197516287046	1036.065915424090	1421.456663899277	259.990287993371	1132.272552803780	1346.416549999916	421.717340874339	1051.797397948435	1431.133356999384	590.906747759520	1037.457927626776	1483.117943284568	407.557204263862	1061.785750302057	932.725946110759	563.576837626006	1045.481692977706	951.634172216551	289.193862919222	1129.526620376202	754.528212180002	536.404536101647	1076.012358364711	634.489296174834	606.952084129963	1162.716677905898	596.088358213662	526.064098762366	1188.116354787653	511.997731689638	538.098961704104	1049.231329050211	725.524806946865	317.268956198288	931.964774121766	631.801574084854	256.560854103651	992.106012314581	537.422885462262	319.431321569324	976.897888423081	469.010164287594	328.901138166021	940.398227484707	403.942998707564	320.853645650407	832.739075699956	305.263085336563	271.004186388151	865.266470932772	187.229351321112	341.194250029088	1172.273569344875	422.062987510956	550.967143345226	1117.904880146870	309.626799807695	615.023620643745	1183.500086485846	222.454683749489	561.203019605530	1085.565717675968	42.181948881030	536.648747641410	1252.056829290448	108.650138456120	569.898452666184	1171.397167200845	39.681981058009	608.376701678910	1375.844745495708	66.576451317556	592.710513506256	721.399086158780	40.633392053926	386.827106793819	791.702033406105	35.887370817752	303.587435879151	877.191265586066	95.581809407982	327.016801778014	1003.520785052950	40.223132787510	291.805271274592	1092.663927814182	1094.937667379425	111.049644504451	1346.514133261516	1079.483551886156	141.457351543386	879.554993234774	1141.840373724755	715.214385527052	823.638103797307	884.787251451315	721.248220023563	
75	43.602714285714	837.486754711477	1001.208160256136	450.308140403599	1035.612677535759	1420.439204653060	262.028940419883	1133.094808203909	1346.033404836995	423.314011341558	1053.118842771850	1430.504661962856	592.886935408183	1037.943395135745	1482.328475365958	409.524012432061	1064.615050049828	931.459713270436	565.366768656261	1047.245753770581	951.280513928924	291.463127969473	1131.318788137824	751.533245492779	538.230094259891	1075.103567195280	632.176674135515	607.257030574218	1161.644436608087	593.369443023365	526.607790783549	1184.969443961799	508.849376663718	537.780105234730	1050.501128838830	724.479629865839	318.431271191830	932.267782876166	631.200808559809	258.474297860192	992.693090019740	536.262857957969	320.384993043637	977.365385158471	467.162443122828	329.619479769571	939.178052233054	402.707535467305	321.757768582641	829.463340303494	306.165235048021	272.018791196358	860.187542104622	187.208477378297	341.418637183029	1169.051658743364	418.739090092206	550.407239239996	1113.807805217988	306.522764328159	614.001089383546	1178.235855694464	219.064520138396	559.672044405210	1077.716967597233	41.311021914165	534.919216209881	1245.086446547336	104.885816713252	567.677983538281	1163.325708410312	38.086345749959	606.902354597942	1368.445343492963	60.929876766553	591.052084106533	714.358822449983	42.062631699477	386.692749371284	784.716205469981	36.523238651783	303.595504896491	870.635496579508	95.786832135987	326.850158298407	996.503284679824	39.893203543024	291.706431757789	1092.553163484773	1093.444682214500	113.793605202469	1346.328045169560	1082.485740100033	145.628709673954	882.927020669835	1139.976173704661	717.302023954845	827.039669422116	882.706122534905	722.193372229035	
